<svg xmlns="http://www.w3.org/2000/svg" viewBox="0 0 120 120" role="img" aria-label="Rubik 2x2"><g stroke="#11151b" stroke-width="1.4" stroke-linejoin="round"><polygon points="60.00,20.00 77.32,30.00 60.00,40.00 42.68,30.00" fill="#FFD500"/><polygon points="42.68,30.00 60.00,40.00 42.68,50.00 25.36,40.00" fill="#FFD500"/><polygon points="77.32,30.00 94.64,40.00 77.32,50.00 60.00,40.00" fill="#FFD500"/><polygon points="60.00,40.00 77.32,50.00 60.00,60.00 42.68,50.00" fill="#FFD500"/><polygon points="25.36,40.00 42.68,50.00 42.68,70.00 25.36,60.00" fill="#009B48"/><polygon points="25.36,60.00 42.68,70.00 42.68,90.00 25.36,80.00" fill="#009B48"/><polygon points="42.68,50.00 60.00,60.00 60.00,80.00 42.68,70.00" fill="#009B48"/><polygon points="42.68,70.00 60.00,80.00 60.00,100.00 42.68,90.00" fill="#009B48"/><polygon points="60.00,60.00 77.32,50.00 77.32,70.00 60.00,80.00" fill="#B71234"/><polygon points="60.00,80.00 77.32,70.00 77.32,90.00 60.00,100.00" fill="#B71234"/><polygon points="77.32,50.00 94.64,40.00 94.64,60.00 77.32,70.00" fill="#B71234"/><polygon points="77.32,70.00 94.64,60.00 94.64,80.00 77.32,90.00" fill="#B71234"/></g></svg>
