<svg xmlns="http://www.w3.org/2000/svg" viewBox="0 0 120 120" role="img" aria-label="Rubik 4x4"><g stroke="#11151b" stroke-width="1.4" stroke-linejoin="round"><polygon points="60.00,20.00 68.66,25.00 60.00,30.00 51.34,25.00" fill="#FFD500"/><polygon points="51.34,25.00 60.00,30.00 51.34,35.00 42.68,30.00" fill="#FFD500"/><polygon points="42.68,30.00 51.34,35.00 42.68,40.00 34.02,35.00" fill="#FFD500"/><polygon points="34.02,35.00 42.68,40.00 34.02,45.00 25.36,40.00" fill="#FFD500"/><polygon points="68.66,25.00 77.32,30.00 68.66,35.00 60.00,30.00" fill="#FFD500"/><polygon points="60.00,30.00 68.66,35.00 60.00,40.00 51.34,35.00" fill="#FFD500"/><polygon points="51.34,35.00 60.00,40.00 51.34,45.00 42.68,40.00" fill="#FFD500"/><polygon points="42.68,40.00 51.34,45.00 42.68,50.00 34.02,45.00" fill="#FFD500"/><polygon points="77.32,30.00 85.98,35.00 77.32,40.00 68.66,35.00" fill="#FFD500"/><polygon points="68.66,35.00 77.32,40.00 68.66,45.00 60.00,40.00" fill="#FFD500"/><polygon points="60.00,40.00 68.66,45.00 60.00,50.00 51.34,45.00" fill="#FFD500"/><polygon points="51.34,45.00 60.00,50.00 51.34,55.00 42.68,50.00" fill="#FFD500"/><polygon points="85.98,35.00 94.64,40.00 85.98,45.00 77.32,40.00" fill="#FFD500"/><polygon points="77.32,40.00 85.98,45.00 77.32,50.00 68.66,45.00" fill="#FFD500"/><polygon points="68.66,45.00 77.32,50.00 68.66,55.00 60.00,50.00" fill="#FFD500"/><polygon points="60.00,50.00 68.66,55.00 60.00,60.00 51.34,55.00" fill="#FFD500"/><polygon points="25.36,40.00 34.02,45.00 34.02,55.00 25.36,50.00" fill="#009B48"/><polygon points="25.36,50.00 34.02,55.00 34.02,65.00 25.36,60.00" fill="#009B48"/><polygon points="25.36,60.00 34.02,65.00 34.02,75.00 25.36,70.00" fill="#009B48"/><polygon points="25.36,70.00 34.02,75.00 34.02,85.00 25.36,80.00" fill="#009B48"/><polygon points="34.02,45.00 42.68,50.00 42.68,60.00 34.02,55.00" fill="#009B48"/><polygon points="34.02,55.00 42.68,60.00 42.68,70.00 34.02,65.00" fill="#009B48"/><polygon points="34.02,65.00 42.68,70.00 42.68,80.00 34.02,75.00" fill="#009B48"/><polygon points="34.02,75.00 42.68,80.00 42.68,90.00 34.02,85.00" fill="#009B48"/><polygon points="42.68,50.00 51.34,55.00 51.34,65.00 42.68,60.00" fill="#009B48"/><polygon points="42.68,60.00 51.34,65.00 51.34,75.00 42.68,70.00" fill="#009B48"/><polygon points="42.68,70.00 51.34,75.00 51.34,85.00 42.68,80.00" fill="#009B48"/><polygon points="42.68,80.00 51.34,85.00 51.34,95.00 42.68,90.00" fill="#009B48"/><polygon points="51.34,55.00 60.00,60.00 60.00,70.00 51.34,65.00" fill="#009B48"/><polygon points="51.34,65.00 60.00,70.00 60.00,80.00 51.34,75.00" fill="#009B48"/><polygon points="51.34,75.00 60.00,80.00 60.00,90.00 51.34,85.00" fill="#009B48"/><polygon points="51.34,85.00 60.00,90.00 60.00,100.00 51.34,95.00" fill="#009B48"/><polygon points="60.00,60.00 68.66,55.00 68.66,65.00 60.00,70.00" fill="#B71234"/><polygon points="60.00,70.00 68.66,65.00 68.66,75.00 60.00,80.00" fill="#B71234"/><polygon points="60.00,80.00 68.66,75.00 68.66,85.00 60.00,90.00" fill="#B71234"/><polygon points="60.00,90.00 68.66,85.00 68.66,95.00 60.00,100.00" fill="#B71234"/><polygon points="68.66,55.00 77.32,50.00 77.32,60.00 68.66,65.00" fill="#B71234"/><polygon points="68.66,65.00 77.32,60.00 77.32,70.00 68.66,75.00" fill="#B71234"/><polygon points="68.66,75.00 77.32,70.00 77.32,80.00 68.66,85.00" fill="#B71234"/><polygon points="68.66,85.00 77.32,80.00 77.32,90.00 68.66,95.00" fill="#B71234"/><polygon points="77.32,50.00 85.98,45.00 85.98,55.00 77.32,60.00" fill="#B71234"/><polygon points="77.32,60.00 85.98,55.00 85.98,65.00 77.32,70.00" fill="#B71234"/><polygon points="77.32,70.00 85.98,65.00 85.98,75.00 77.32,80.00" fill="#B71234"/><polygon points="77.32,80.00 85.98,75.00 85.98,85.00 77.32,90.00" fill="#B71234"/><polygon points="85.98,45.00 94.64,40.00 94.64,50.00 85.98,55.00" fill="#B71234"/><polygon points="85.98,55.00 94.64,50.00 94.64,60.00 85.98,65.00" fill="#B71234"/><polygon points="85.98,65.00 94.64,60.00 94.64,70.00 85.98,75.00" fill="#B71234"/><polygon points="85.98,75.00 94.64,70.00 94.64,80.00 85.98,85.00" fill="#B71234"/></g></svg>
