<svg xmlns="http://www.w3.org/2000/svg" viewBox="0 0 120 120" role="img" aria-label="Rubik 5x5"><g stroke="#11151b" stroke-width="1.1" stroke-linejoin="round"><polygon points="60.00,20.00 66.93,24.00 60.00,28.00 53.07,24.00" fill="#FFD500"/><polygon points="53.07,24.00 60.00,28.00 53.07,32.00 46.14,28.00" fill="#FFD500"/><polygon points="46.14,28.00 53.07,32.00 46.14,36.00 39.22,32.00" fill="#FFD500"/><polygon points="39.22,32.00 46.14,36.00 39.22,40.00 32.29,36.00" fill="#FFD500"/><polygon points="32.29,36.00 39.22,40.00 32.29,44.00 25.36,40.00" fill="#FFD500"/><polygon points="66.93,24.00 73.86,28.00 66.93,32.00 60.00,28.00" fill="#FFD500"/><polygon points="60.00,28.00 66.93,32.00 60.00,36.00 53.07,32.00" fill="#FFD500"/><polygon points="53.07,32.00 60.00,36.00 53.07,40.00 46.14,36.00" fill="#FFD500"/><polygon points="46.14,36.00 53.07,40.00 46.14,44.00 39.22,40.00" fill="#FFD500"/><polygon points="39.22,40.00 46.14,44.00 39.22,48.00 32.29,44.00" fill="#FFD500"/><polygon points="73.86,28.00 80.78,32.00 73.86,36.00 66.93,32.00" fill="#FFD500"/><polygon points="66.93,32.00 73.86,36.00 66.93,40.00 60.00,36.00" fill="#FFD500"/><polygon points="60.00,36.00 66.93,40.00 60.00,44.00 53.07,40.00" fill="#FFD500"/><polygon points="53.07,40.00 60.00,44.00 53.07,48.00 46.14,44.00" fill="#FFD500"/><polygon points="46.14,44.00 53.07,48.00 46.14,52.00 39.22,48.00" fill="#FFD500"/><polygon points="80.78,32.00 87.71,36.00 80.78,40.00 73.86,36.00" fill="#FFD500"/><polygon points="73.86,36.00 80.78,40.00 73.86,44.00 66.93,40.00" fill="#FFD500"/><polygon points="66.93,40.00 73.86,44.00 66.93,48.00 60.00,44.00" fill="#FFD500"/><polygon points="60.00,44.00 66.93,48.00 60.00,52.00 53.07,48.00" fill="#FFD500"/><polygon points="53.07,48.00 60.00,52.00 53.07,56.00 46.14,52.00" fill="#FFD500"/><polygon points="87.71,36.00 94.64,40.00 87.71,44.00 80.78,40.00" fill="#FFD500"/><polygon points="80.78,40.00 87.71,44.00 80.78,48.00 73.86,44.00" fill="#FFD500"/><polygon points="73.86,44.00 80.78,48.00 73.86,52.00 66.93,48.00" fill="#FFD500"/><polygon points="66.93,48.00 73.86,52.00 66.93,56.00 60.00,52.00" fill="#FFD500"/><polygon points="60.00,52.00 66.93,56.00 60.00,60.00 53.07,56.00" fill="#FFD500"/><polygon points="25.36,40.00 32.29,44.00 32.29,52.00 25.36,48.00" fill="#009B48"/><polygon points="25.36,48.00 32.29,52.00 32.29,60.00 25.36,56.00" fill="#009B48"/><polygon points="25.36,56.00 32.29,60.00 32.29,68.00 25.36,64.00" fill="#009B48"/><polygon points="25.36,64.00 32.29,68.00 32.29,76.00 25.36,72.00" fill="#009B48"/><polygon points="25.36,72.00 32.29,76.00 32.29,84.00 25.36,80.00" fill="#009B48"/><polygon points="32.29,44.00 39.22,48.00 39.22,56.00 32.29,52.00" fill="#009B48"/><polygon points="32.29,52.00 39.22,56.00 39.22,64.00 32.29,60.00" fill="#009B48"/><polygon points="32.29,60.00 39.22,64.00 39.22,72.00 32.29,68.00" fill="#009B48"/><polygon points="32.29,68.00 39.22,72.00 39.22,80.00 32.29,76.00" fill="#009B48"/><polygon points="32.29,76.00 39.22,80.00 39.22,88.00 32.29,84.00" fill="#009B48"/><polygon points="39.22,48.00 46.14,52.00 46.14,60.00 39.22,56.00" fill="#009B48"/><polygon points="39.22,56.00 46.14,60.00 46.14,68.00 39.22,64.00" fill="#009B48"/><polygon points="39.22,64.00 46.14,68.00 46.14,76.00 39.22,72.00" fill="#009B48"/><polygon points="39.22,72.00 46.14,76.00 46.14,84.00 39.22,80.00" fill="#009B48"/><polygon points="39.22,80.00 46.14,84.00 46.14,92.00 39.22,88.00" fill="#009B48"/><polygon points="46.14,52.00 53.07,56.00 53.07,64.00 46.14,60.00" fill="#009B48"/><polygon points="46.14,60.00 53.07,64.00 53.07,72.00 46.14,68.00" fill="#009B48"/><polygon points="46.14,68.00 53.07,72.00 53.07,80.00 46.14,76.00" fill="#009B48"/><polygon points="46.14,76.00 53.07,80.00 53.07,88.00 46.14,84.00" fill="#009B48"/><polygon points="46.14,84.00 53.07,88.00 53.07,96.00 46.14,92.00" fill="#009B48"/><polygon points="53.07,56.00 60.00,60.00 60.00,68.00 53.07,64.00" fill="#009B48"/><polygon points="53.07,64.00 60.00,68.00 60.00,76.00 53.07,72.00" fill="#009B48"/><polygon points="53.07,72.00 60.00,76.00 60.00,84.00 53.07,80.00" fill="#009B48"/><polygon points="53.07,80.00 60.00,84.00 60.00,92.00 53.07,88.00" fill="#009B48"/><polygon points="53.07,88.00 60.00,92.00 60.00,100.00 53.07,96.00" fill="#009B48"/><polygon points="60.00,60.00 66.93,56.00 66.93,64.00 60.00,68.00" fill="#B71234"/><polygon points="60.00,68.00 66.93,64.00 66.93,72.00 60.00,76.00" fill="#B71234"/><polygon points="60.00,76.00 66.93,72.00 66.93,80.00 60.00,84.00" fill="#B71234"/><polygon points="60.00,84.00 66.93,80.00 66.93,88.00 60.00,92.00" fill="#B71234"/><polygon points="60.00,92.00 66.93,88.00 66.93,96.00 60.00,100.00" fill="#B71234"/><polygon points="66.93,56.00 73.86,52.00 73.86,60.00 66.93,64.00" fill="#B71234"/><polygon points="66.93,64.00 73.86,60.00 73.86,68.00 66.93,72.00" fill="#B71234"/><polygon points="66.93,72.00 73.86,68.00 73.86,76.00 66.93,80.00" fill="#B71234"/><polygon points="66.93,80.00 73.86,76.00 73.86,84.00 66.93,88.00" fill="#B71234"/><polygon points="66.93,88.00 73.86,84.00 73.86,92.00 66.93,96.00" fill="#B71234"/><polygon points="73.86,52.00 80.78,48.00 80.78,56.00 73.86,60.00" fill="#B71234"/><polygon points="73.86,60.00 80.78,56.00 80.78,64.00 73.86,68.00" fill="#B71234"/><polygon points="73.86,68.00 80.78,64.00 80.78,72.00 73.86,76.00" fill="#B71234"/><polygon points="73.86,76.00 80.78,72.00 80.78,80.00 73.86,84.00" fill="#B71234"/><polygon points="73.86,84.00 80.78,80.00 80.78,88.00 73.86,92.00" fill="#B71234"/><polygon points="80.78,48.00 87.71,44.00 87.71,52.00 80.78,56.00" fill="#B71234"/><polygon points="80.78,56.00 87.71,52.00 87.71,60.00 80.78,64.00" fill="#B71234"/><polygon points="80.78,64.00 87.71,60.00 87.71,68.00 80.78,72.00" fill="#B71234"/><polygon points="80.78,72.00 87.71,68.00 87.71,76.00 80.78,80.00" fill="#B71234"/><polygon points="80.78,80.00 87.71,76.00 87.71,84.00 80.78,88.00" fill="#B71234"/><polygon points="87.71,44.00 94.64,40.00 94.64,48.00 87.71,52.00" fill="#B71234"/><polygon points="87.71,52.00 94.64,48.00 94.64,56.00 87.71,60.00" fill="#B71234"/><polygon points="87.71,60.00 94.64,56.00 94.64,64.00 87.71,68.00" fill="#B71234"/><polygon points="87.71,68.00 94.64,64.00 94.64,72.00 87.71,76.00" fill="#B71234"/><polygon points="87.71,76.00 94.64,72.00 94.64,80.00 87.71,84.00" fill="#B71234"/></g></svg>
