<svg xmlns="http://www.w3.org/2000/svg" viewBox="0 0 120 120" role="img" aria-label="Rubik 3x3"><g stroke="#11151b" stroke-width="1.4" stroke-linejoin="round"><polygon points="60.00,20.00 71.55,26.67 60.00,33.33 48.45,26.67" fill="#FFD500"/><polygon points="48.45,26.67 60.00,33.33 48.45,40.00 36.91,33.33" fill="#FFD500"/><polygon points="36.91,33.33 48.45,40.00 36.91,46.67 25.36,40.00" fill="#FFD500"/><polygon points="71.55,26.67 83.09,33.33 71.55,40.00 60.00,33.33" fill="#FFD500"/><polygon points="60.00,33.33 71.55,40.00 60.00,46.67 48.45,40.00" fill="#FFD500"/><polygon points="48.45,40.00 60.00,46.67 48.45,53.33 36.91,46.67" fill="#FFD500"/><polygon points="83.09,33.33 94.64,40.00 83.09,46.67 71.55,40.00" fill="#FFD500"/><polygon points="71.55,40.00 83.09,46.67 71.55,53.33 60.00,46.67" fill="#FFD500"/><polygon points="60.00,46.67 71.55,53.33 60.00,60.00 48.45,53.33" fill="#FFD500"/><polygon points="25.36,40.00 36.91,46.67 36.91,60.00 25.36,53.33" fill="#009B48"/><polygon points="25.36,53.33 36.91,60.00 36.91,73.33 25.36,66.67" fill="#009B48"/><polygon points="25.36,66.67 36.91,73.33 36.91,86.67 25.36,80.00" fill="#009B48"/><polygon points="36.91,46.67 48.45,53.33 48.45,66.67 36.91,60.00" fill="#009B48"/><polygon points="36.91,60.00 48.45,66.67 48.45,80.00 36.91,73.33" fill="#009B48"/><polygon points="36.91,73.33 48.45,80.00 48.45,93.33 36.91,86.67" fill="#009B48"/><polygon points="48.45,53.33 60.00,60.00 60.00,73.33 48.45,66.67" fill="#009B48"/><polygon points="48.45,66.67 60.00,73.33 60.00,86.67 48.45,80.00" fill="#009B48"/><polygon points="48.45,80.00 60.00,86.67 60.00,100.00 48.45,93.33" fill="#009B48"/><polygon points="60.00,60.00 71.55,53.33 71.55,66.67 60.00,73.33" fill="#B71234"/><polygon points="60.00,73.33 71.55,66.67 71.55,80.00 60.00,86.67" fill="#B71234"/><polygon points="60.00,86.67 71.55,80.00 71.55,93.33 60.00,100.00" fill="#B71234"/><polygon points="71.55,53.33 83.09,46.67 83.09,60.00 71.55,66.67" fill="#B71234"/><polygon points="71.55,66.67 83.09,60.00 83.09,73.33 71.55,80.00" fill="#B71234"/><polygon points="71.55,80.00 83.09,73.33 83.09,86.67 71.55,93.33" fill="#B71234"/><polygon points="83.09,46.67 94.64,40.00 94.64,53.33 83.09,60.00" fill="#B71234"/><polygon points="83.09,60.00 94.64,53.33 94.64,66.67 83.09,73.33" fill="#B71234"/><polygon points="83.09,73.33 94.64,66.67 94.64,80.00 83.09,86.67" fill="#B71234"/></g></svg>
