<svg xmlns="http://www.w3.org/2000/svg" viewBox="0 0 120 120" role="img" aria-label="Megaminx"><g stroke="#11151b" stroke-width="1.4" stroke-linejoin="round"><polygon points="60.00,36.00 85.68,54.66 107.55,47.55 89.39,22.55 60.00,13.00" fill="#009B48"/><polygon points="85.68,54.66 75.87,84.84 89.39,103.45 107.55,78.45 107.55,47.55" fill="#B71234"/><polygon points="75.87,84.84 44.13,84.84 30.61,103.45 60.00,113.00 89.39,103.45" fill="#0046AD"/><polygon points="44.13,84.84 34.32,54.66 12.45,47.55 12.45,78.45 30.61,103.45" fill="#FFD500"/><polygon points="34.32,54.66 60.00,36.00 60.00,13.00 30.61,22.55 12.45,47.55" fill="#8E44AD"/><polygon points="60.00,36.00 68.36,42.07 60.00,48.15 51.64,42.08" fill="#FFFFFF"/><polygon points="77.32,48.58 85.68,54.66 82.48,64.49 74.12,58.41" fill="#FFFFFF"/><polygon points="79.06,75.01 75.87,84.84 65.53,84.84 68.73,75.01" fill="#FFFFFF"/><polygon points="54.47,84.84 44.13,84.84 40.94,75.01 51.27,75.01" fill="#FFFFFF"/><polygon points="37.52,64.49 34.32,54.66 42.68,48.58 45.88,58.41" fill="#FFFFFF"/><polygon points="68.36,42.07 77.32,48.58 74.12,58.41 60.00,48.15" fill="#FFFFFF"/><polygon points="82.48,64.49 79.06,75.01 68.73,75.01 74.12,58.41" fill="#FFFFFF"/><polygon points="65.53,84.84 54.47,84.84 51.27,75.01 68.73,75.01" fill="#FFFFFF"/><polygon points="40.94,75.01 37.52,64.49 45.88,58.41 51.27,75.01" fill="#FFFFFF"/><polygon points="60.00,48.15 45.88,58.41 42.68,48.58 51.64,42.07" fill="#FFFFFF"/><polygon points="60.00,48.15 74.12,58.41 68.73,75.01 51.27,75.01 45.88,58.41" fill="#FFFFFF"/></g></svg>
